<svg width="93" height="59" viewBox="0 0 93 59" fill="none" xmlns="http://www.w3.org/2000/svg">
<path d="M89.1001 6.67141C86.6581 3.79156 83.1765 1.72709 79.4006 0.235107C78.9677 1.31071 78.1017 2.23019 76.9411 2.43838C76.6121 2.49041 76.1098 2.73331 75.7633 2.76799C75.6767 2.82005 75.59 2.87208 75.5034 2.92415C75.4862 2.94147 75.469 2.94147 75.4515 2.95883C75.3995 3.01089 75.2782 3.11496 75.1571 3.16702C74.932 3.35785 74.724 3.56602 74.4988 3.77421C74.2217 4.05179 73.9446 4.32936 73.6847 4.6243C73.6503 4.659 73.6156 4.71104 73.5809 4.76307C73.529 4.86717 73.477 4.98861 73.4076 5.09271C73.3385 5.31823 73.2519 5.52642 73.1999 5.75193C73.1652 5.92545 73.1305 6.09893 73.0961 6.27241C73.0786 6.54999 73.0267 6.82754 73.0095 7.10512C72.9747 7.81643 72.9573 8.52772 72.9747 9.22165C72.992 10.5748 73.0439 11.928 72.94 13.2812C72.9228 13.6108 72.8534 13.9404 72.7668 14.2354C83.6268 16.7856 82.8994 24.1067 71.5023 25.6679C57.646 27.5763 42.4039 22.3718 42.4039 22.3718C42.4039 22.3718 21.3593 16.3866 10.967 21.938C0.574606 27.4895 -4.51763 47.6311 7.67606 55.2474C23.0048 64.8237 38.1777 49.4182 49.4706 48.3598C48.6218 46.9373 49.0722 44.8729 50.1287 43.7104C50.4233 43.3808 50.8389 43.1205 51.2893 42.9297C51.2374 42.8605 51.168 42.7737 51.1161 42.7042C51.0641 42.6697 50.9084 42.4786 50.7698 42.3399C50.4924 42.0451 50.2153 41.7675 49.921 41.5072C48.847 40.5358 47.5134 39.6856 46.8379 38.3499C46.2837 37.2394 46.1623 36.112 46.6474 34.9495C47.0631 33.9781 47.981 32.8851 49.1069 32.7463C49.2974 32.7288 49.4879 32.6943 49.6611 32.6768C49.3149 32.6595 48.9684 32.6248 48.6218 32.6248L48.5699 32.0177C48.5699 32.0177 46.3184 29.1376 45.2097 26.8824C45.1233 26.7264 45.3482 26.5876 45.4696 26.7264C46.7168 28.357 49.3321 31.6013 50.995 32.3645C93.4304 34.7759 97.7605 16.907 89.1001 6.67141ZM45.3829 32.7288C42.3173 33.0411 38.9918 33.9085 35.4064 35.4698C23.2819 40.7266 10.6898 41.1601 7.90122 37.0834C7.79729 36.9446 7.97049 36.7711 8.10907 36.8751C8.52476 37.1874 9.11367 37.517 9.80649 37.5517C9.87576 37.5517 9.94509 37.4997 9.96239 37.4305C10.101 36.5283 11.1055 31.2543 14.7082 28.357C14.8641 28.2357 15.0373 28.4437 14.9161 28.5825C14.2579 29.2767 13.5131 30.2306 13.0974 31.341C12.9415 31.7401 12.9589 32.1737 13.1494 32.538C13.9115 34.2208 16.2152 39.1653 16.4576 39.1825C17.9819 39.2865 21.8616 39.1305 28.4955 37.3609C35.5277 35.4873 40.3082 32.1912 45.3829 32.7288Z" fill="white"/>
</svg>
